<?xml version="1.0" standalone="no"?>
<!DOCTYPE svg PUBLIC "-//W3C//DTD SVG 20010904//EN"
 "http://www.w3.org/TR/2001/REC-SVG-20010904/DTD/svg10.dtd">
<svg version="1.0" xmlns="http://www.w3.org/2000/svg"
 width="326.000000pt" height="326.000000pt" viewBox="0 0 326.000000 326.000000"
 preserveAspectRatio="xMidYMid meet">
<metadata>
Created by potrace 1.11, written by Peter Selinger 2001-2013
</metadata>
<g transform="translate(0.000000,326.000000) scale(0.100000,-0.100000)"
fill="#000000" stroke="none">
<path d="M1479 3166 c-2 -2 -31 -6 -64 -10 -102 -11 -276 -57 -396 -106 -106
-43 -303 -151 -347 -189 -9 -9 -38 -33 -63 -53 -280 -225 -477 -559 -545 -923
-28 -149 -26 -412 5 -560 42 -206 113 -377 228 -555 31 -47 58 -87 62 -90 3
-3 22 -25 42 -50 164 -204 427 -387 684 -476 197 -69 341 -91 563 -89 199 2
339 26 507 85 466 165 825 527 976 983 55 168 72 275 73 462 1 181 -3 226 -34
364 -108 484 -469 905 -937 1092 -199 79 -390 117 -604 117 -81 1 -148 -1
-150 -2z"/>
</g>
</svg>
