<?xml version="1.0" standalone="no"?>
<!DOCTYPE svg PUBLIC "-//W3C//DTD SVG 20010904//EN"
 "http://www.w3.org/TR/2001/REC-SVG-20010904/DTD/svg10.dtd">
<svg version="1.0" xmlns="http://www.w3.org/2000/svg"
 width="800.000000pt" height="800.000000pt" viewBox="0 0 800.000000 800.000000"
 preserveAspectRatio="xMidYMid meet">
<metadata>
Created by potrace 1.11, written by Peter Selinger 2001-2013
</metadata>
<g transform="translate(0.000000,800.000000) scale(0.100000,-0.100000)"
fill="#000000" stroke="none">
<path d="M3868 7665 c-2 -1 -48 -6 -103 -9 -55 -4 -111 -9 -125 -11 -14 -2
-43 -6 -65 -8 -39 -5 -138 -21 -200 -32 -253 -46 -678 -188 -890 -298 -22 -12
-42 -21 -45 -22 -14 -1 -275 -153 -355 -207 -81 -55 -272 -194 -285 -208 -3
-3 -34 -30 -70 -60 -104 -87 -348 -336 -436 -446 -138 -172 -302 -415 -377
-559 -245 -471 -374 -899 -425 -1415 -14 -151 -7 -631 13 -740 2 -14 7 -46 10
-71 4 -38 32 -194 51 -288 14 -68 68 -260 102 -361 179 -528 469 -995 867
-1395 84 -84 222 -210 259 -234 11 -8 23 -17 26 -21 15 -17 147 -115 230 -170
52 -35 114 -76 137 -92 23 -15 44 -28 47 -28 4 0 25 -12 49 -27 67 -42 304
-158 418 -204 194 -78 450 -157 619 -189 112 -22 217 -39 274 -45 33 -3 62 -8
66 -10 9 -5 269 -18 380 -18 98 0 331 11 365 17 11 2 52 7 90 12 39 4 72 8 75
9 3 0 26 4 51 8 85 14 104 18 189 38 47 11 92 22 100 24 95 20 351 103 435
140 17 7 55 23 85 35 97 38 324 156 460 240 461 282 866 681 1144 1125 88 141
136 222 136 230 0 4 9 19 19 33 10 15 19 30 20 35 0 4 11 28 25 55 40 80 117
262 153 362 35 96 109 350 119 404 3 16 6 32 8 35 2 3 7 24 10 46 4 22 9 47
11 55 3 8 7 29 9 45 2 17 10 66 16 110 41 270 48 687 15 945 -1 14 -6 50 -9
80 -4 30 -9 63 -12 72 -3 9 -7 32 -8 50 -6 50 -52 256 -80 355 -79 279 -199
565 -343 817 -82 142 -275 424 -335 487 -7 8 -35 41 -63 74 -49 59 -279 292
-345 350 -414 361 -901 621 -1435 765 -44 12 -91 24 -105 26 -14 3 -52 11 -85
19 -90 20 -286 49 -425 61 -66 6 -457 13 -462 9z"/>
</g>
</svg>
